DataType=double
version=3
OpenSimVersion=4.5-2023-11-26-efcdfd3eb
endheader
time	EMG01_right_gast_med	EMG02_right_glut_max	EMG03_left_gast_med	EMG04_left_glut_max	EMG05_right_glut_med	EMG06_right_bic_fem	EMG07_right_rect_fem	EMG08_right_vast_lat	EMG09_right_vast_med	EMG10_right_tens_fasc_lat	EMG11_left_glut_med	EMG12_left_bic_fem	EMG13_left_rect_fem	EMG14_left_vast_lat	EMG15_left_vast_med	EMG16_left_tens_fasc_lat
2.51	-0.3515952624542823	35.17818514974007	58.84592495577247	19.56739902528873	28.02597956980788	29.93333884202546	2.990160295445738	7.188181481616097	1.940756334516897	6.620923582193813	12.07668619885759	1.810415611768823	8.854691855142777	3.421477177689976	16.84248468455609	67.99492652384608
2.52	1.160643645016823	33.58823633393932	59.05125979432884	18.57778854274995	28.35769261870801	31.28589342564684	2.94494828093473	7.663520131986618	2.8399784462626	6.708469027415243	11.61848774818671	2.096773448904328	8.682166713638322	3.403310315941527	14.88928374455005	63.76393498633993
2.53	2.688431354461275	32.15813210902651	59.16484369180586	17.63408799230453	29.51771048430176	32.62720788871491	2.933110899254328	8.18840489506734	4.127252910016451	7.018339088599806	11.15433417248084	2.395099025685509	8.512026920217139	3.426705990234659	13.16373013933439	59.49774565171344
2.54	4.227537925702932	30.9094954299497	59.17347386343551	16.75406172091177	31.48705954230725	33.94648851363051	2.954729067993175	8.758883646148766	5.810020056907916	7.553402550581507	10.68615702808181	2.696473684000637	8.343151365385534	3.48831081214604	11.6638954487052	55.22627009285104
2.55	5.775078546928809	29.86108238773324	59.0643822283051	15.95610197171484	34.23734844231848	35.23274297704833	3.009542378232861	9.370271539572858	7.891271633384986	8.31435303440885	10.21605804895336	2.992572347343449	8.174522137073712	3.584701012952333	10.38546781783933	50.97886149789199
2.56	7.329262281529763	29.02852457542831	58.82564484547298	15.25895464882356	37.73104711110182	36.47488161691439	3.096954058144945	10.01720564272958	10.36936849428296	9.299631119980907	9.746268906483518	3.275765718821728	8.005242718764466	3.712430255842695	9.321952932518785	46.78407740930353
2.57	8.88913392128106	28.42411782331787	58.44657062412283	14.6814217386498	41.92186414698111	37.66181961919458	3.21603865556549	10.69370923298557	13.2379050829076	10.50536059249848	9.279107042824524	3.539208794070602	7.83455225905779	3.86807197911674	8.464887033462963	42.66945343553968
2.58	10.45431542786011	28.05666052139468	57.91805464388145	14.24204563239531	46.75522234987687	38.7825825914374	3.365552283850457	11.39326512494755	16.48562500415735	11.92530143585935	8.816929085788757	3.776914410454322	7.661836130566786	4.048255579650069	7.804059010189089	38.66129050758321
2.59	12.02475320763658	27.93134373582927	57.2328844319227	13.95878088464869	52.16883189377122	39.82641845232358	3.543945340500788	12.10889731162863	20.09639172209644	13.55082267837133	8.362083549715141	3.983810892091673	7.486633035695636	4.249695907119709	7.327738666120236	34.78445860744749
2.6	13.60047717352672	28.04969426947856	56.38599103246527	13.84865906227684	58.09336034213492	40.78291800827428	3.749377676240928	12.83326002661701	24.04921807078106	15.3708984866697	7.916864555624096	4.155783324861496	7.308638932128683	4.469215817348801	7.02290828182759	31.06221990829417
2.61	15.18137725682491	28.40957077940151	55.37463973713197	13.92745238844069	64.45319826066694	41.64214520537934	3.9797362503807	13.55873309191497	28.31835788383686	17.37213090295325	7.48346817592398	4.289698506906222	7.127708012876151	4.70376186849437	6.875494638238842	27.51607412682291
2.62	16.76700275573339	29.00521208581251	54.1985577417343	14.20934203604315	71.16731851434459	42.39477618825015	4.232655365898851	14.27752216522915	32.87346264354706	19.53880236170229	7.063952771214773	4.383414044747777	6.943850927938028	4.950413554712909	6.870598709082533	24.16562867293153
2.63	18.35638960089135	29.82733597762726	52.85999798156194	14.70659719680757	78.1502262944238	43.03224441155102	4.505539644284981	14.98176234224533	37.67980556319396	21.85296074390337	6.660204384626539	4.435772363160731	6.757230418735132	5.206386744161217	6.992720304716443	21.02849573207187
2.64	19.94792022553287	30.86328625404602	51.3637397764828	15.42927128555404	85.31299534065529	43.54688761117125	4.795589943325441	15.66362360565243	42.69857483429581	24.29453931032553	6.273907942459525	4.446580631026761	6.568154525410916	5.469032240755954	7.22597510468487	18.12021765861208
2.65	21.53922022368654	32.09722541916268	49.71702743406774	16.38492170344839	92.56438362894534	43.93209168522042	5.099832385749594	16.3154168215197	47.88723685434857	26.84151336968281	5.906524733154836	4.416577829512793	6.377067483475133	5.73583059817449	7.554301830713544	15.45422112762762
2.66	23.12709534662309	33.51037021655217	47.92944836624971	17.57835949214089	99.81201898696942	44.18242623064485	5.415150538758025	16.92969920379039	53.19996910071262	29.47009493734936	5.559276420428743	4.347390372605014	6.184538403240715	6.004384425528243	7.961657767911762	13.04179953574934
2.67	24.70751158919859	35.081266986982	46.01275394084846	19.01143498209468	106.9636417285559	44.29376621221361	5.73832060122181	17.49937827419362	58.58816082802741	32.15496592022828	5.233135662290687	4.241477781594661	5.991247932182695	6.272409414169854	8.43220133116618	10.89212220845677
